<svg width="44" height="8" viewBox="0 0 44 8" fill="none" xmlns="http://www.w3.org/2000/svg">
<path d="M0.914062 6.7998C0.914062 6.60091 0.975423 6.43376 1.09814 6.29834C1.2251 6.15869 1.40706 6.08887 1.64404 6.08887C1.88102 6.08887 2.06087 6.15869 2.18359 6.29834C2.31055 6.43376 2.37402 6.60091 2.37402 6.7998C2.37402 6.99447 2.31055 7.15951 2.18359 7.29492C2.06087 7.43034 1.88102 7.49805 1.64404 7.49805C1.40706 7.49805 1.2251 7.43034 1.09814 7.29492C0.975423 7.15951 0.914062 6.99447 0.914062 6.7998ZM4.3418 6.7998C4.3418 6.60091 4.40316 6.43376 4.52588 6.29834C4.65283 6.15869 4.8348 6.08887 5.07178 6.08887C5.30876 6.08887 5.48861 6.15869 5.61133 6.29834C5.73828 6.43376 5.80176 6.60091 5.80176 6.7998C5.80176 6.99447 5.73828 7.15951 5.61133 7.29492C5.48861 7.43034 5.30876 7.49805 5.07178 7.49805C4.8348 7.49805 4.65283 7.43034 4.52588 7.29492C4.40316 7.15951 4.3418 6.99447 4.3418 6.7998ZM7.76953 6.7998C7.76953 6.60091 7.83089 6.43376 7.95361 6.29834C8.08057 6.15869 8.26253 6.08887 8.49951 6.08887C8.73649 6.08887 8.91634 6.15869 9.03906 6.29834C9.16602 6.43376 9.22949 6.60091 9.22949 6.7998C9.22949 6.99447 9.16602 7.15951 9.03906 7.29492C8.91634 7.43034 8.73649 7.49805 8.49951 7.49805C8.26253 7.49805 8.08057 7.43034 7.95361 7.29492C7.83089 7.15951 7.76953 6.99447 7.76953 6.7998Z" fill="#262626"/>
<path d="M15.5708 1.91846V7.42188H14.3901V0.553711H15.5073L15.5708 1.91846ZM15.3296 3.72754L14.7837 3.7085C14.7879 3.23877 14.8493 2.80501 14.9678 2.40723C15.0863 2.00521 15.2619 1.65609 15.4946 1.35986C15.7274 1.06364 16.0173 0.835124 16.3643 0.674316C16.7113 0.509277 17.1133 0.426758 17.5703 0.426758C17.8919 0.426758 18.1882 0.473307 18.459 0.566406C18.7298 0.655273 18.9647 0.797038 19.1636 0.991699C19.3625 1.18636 19.5169 1.43604 19.627 1.74072C19.737 2.04541 19.792 2.41357 19.792 2.84521V7.42188H18.6177V2.90234C18.6177 2.54264 18.5563 2.25488 18.4336 2.03906C18.3151 1.82324 18.1458 1.66667 17.9258 1.56934C17.7057 1.46777 17.4476 1.41699 17.1514 1.41699C16.8044 1.41699 16.5145 1.47835 16.2817 1.60107C16.049 1.7238 15.8628 1.89307 15.7231 2.10889C15.5835 2.32471 15.4819 2.57227 15.4185 2.85156C15.3592 3.12663 15.3296 3.41862 15.3296 3.72754ZM19.7793 3.08008L18.9922 3.32129C18.9964 2.94466 19.0578 2.58285 19.1763 2.23584C19.299 1.88883 19.4746 1.57992 19.7031 1.30908C19.9359 1.03825 20.2215 0.824544 20.5601 0.667969C20.8986 0.507161 21.2858 0.426758 21.7217 0.426758C22.0898 0.426758 22.4157 0.475423 22.6992 0.572754C22.987 0.670085 23.2282 0.820312 23.4229 1.02344C23.6217 1.22233 23.772 1.47835 23.8735 1.7915C23.9751 2.10465 24.0259 2.47705 24.0259 2.90869V7.42188H22.8452V2.896C22.8452 2.5109 22.7839 2.21257 22.6611 2.00098C22.5426 1.78516 22.3734 1.63493 22.1533 1.55029C21.9375 1.46143 21.6794 1.41699 21.3789 1.41699C21.1208 1.41699 20.8923 1.46143 20.6934 1.55029C20.4945 1.63916 20.3273 1.76188 20.1919 1.91846C20.0565 2.0708 19.9528 2.24642 19.8809 2.44531C19.8132 2.64421 19.7793 2.85579 19.7793 3.08008ZM25.4922 4.06396V3.91797C25.4922 3.42285 25.5641 2.9637 25.708 2.54053C25.8519 2.11312 26.0592 1.74284 26.3301 1.42969C26.6009 1.1123 26.9289 0.866862 27.314 0.693359C27.6991 0.515625 28.1307 0.426758 28.6089 0.426758C29.0913 0.426758 29.5251 0.515625 29.9102 0.693359C30.2995 0.866862 30.6296 1.1123 30.9004 1.42969C31.1755 1.74284 31.3849 2.11312 31.5288 2.54053C31.6727 2.9637 31.7446 3.42285 31.7446 3.91797V4.06396C31.7446 4.55908 31.6727 5.01823 31.5288 5.44141C31.3849 5.86458 31.1755 6.23486 30.9004 6.55225C30.6296 6.8654 30.3016 7.11084 29.9165 7.28857C29.5356 7.46208 29.104 7.54883 28.6216 7.54883C28.1392 7.54883 27.7054 7.46208 27.3203 7.28857C26.9352 7.11084 26.6051 6.8654 26.3301 6.55225C26.0592 6.23486 25.8519 5.86458 25.708 5.44141C25.5641 5.01823 25.4922 4.55908 25.4922 4.06396ZM26.6665 3.91797V4.06396C26.6665 4.40674 26.7067 4.73047 26.7871 5.03516C26.8675 5.33561 26.9881 5.60221 27.1489 5.83496C27.314 6.06771 27.5192 6.25179 27.7646 6.38721C28.0101 6.51839 28.2957 6.58398 28.6216 6.58398C28.9432 6.58398 29.2246 6.51839 29.4658 6.38721C29.7113 6.25179 29.9144 6.06771 30.0752 5.83496C30.236 5.60221 30.3566 5.33561 30.437 5.03516C30.5216 4.73047 30.564 4.40674 30.564 4.06396V3.91797C30.564 3.57943 30.5216 3.25993 30.437 2.95947C30.3566 2.65479 30.2339 2.38607 30.0688 2.15332C29.908 1.91634 29.7049 1.73014 29.4595 1.59473C29.2183 1.45931 28.9347 1.3916 28.6089 1.3916C28.2873 1.3916 28.0037 1.45931 27.7583 1.59473C27.5171 1.73014 27.314 1.91634 27.1489 2.15332C26.9881 2.38607 26.8675 2.65479 26.7871 2.95947C26.7067 3.25993 26.6665 3.57943 26.6665 3.91797ZM34.3916 1.63281V7.42188H33.2173V0.553711H34.3599L34.3916 1.63281ZM36.5371 0.515625L36.5308 1.60742C36.4334 1.58626 36.3403 1.57357 36.2515 1.56934C36.1668 1.56087 36.0695 1.55664 35.9595 1.55664C35.6886 1.55664 35.4495 1.59896 35.2422 1.68359C35.0348 1.76823 34.8592 1.88672 34.7153 2.03906C34.5715 2.19141 34.4572 2.37337 34.3726 2.58496C34.2922 2.79232 34.2393 3.02083 34.2139 3.27051L33.8838 3.46094C33.8838 3.04622 33.924 2.6569 34.0044 2.29297C34.089 1.92904 34.2181 1.60742 34.3916 1.32812C34.5651 1.0446 34.7852 0.824544 35.0518 0.667969C35.3226 0.507161 35.6442 0.426758 36.0166 0.426758C36.1012 0.426758 36.1986 0.437337 36.3086 0.458496C36.4186 0.475423 36.4948 0.494466 36.5371 0.515625ZM40.3457 7.54883C39.8675 7.54883 39.4338 7.46842 39.0444 7.30762C38.6593 7.14258 38.3271 6.91195 38.0479 6.61572C37.7728 6.3195 37.5612 5.96826 37.4131 5.56201C37.265 5.15576 37.1909 4.71143 37.1909 4.229V3.9624C37.1909 3.40381 37.2734 2.90658 37.4385 2.4707C37.6035 2.0306 37.8278 1.6582 38.1113 1.35352C38.3949 1.04883 38.7165 0.818197 39.0762 0.661621C39.4359 0.505046 39.8083 0.426758 40.1934 0.426758C40.6842 0.426758 41.1074 0.511393 41.4629 0.680664C41.8226 0.849935 42.1167 1.08691 42.3452 1.3916C42.5737 1.69206 42.743 2.04753 42.853 2.45801C42.9631 2.86426 43.0181 3.30859 43.0181 3.79102V4.31787H37.8892V3.35938H41.8438V3.27051C41.8268 2.96582 41.7633 2.6696 41.6533 2.38184C41.5475 2.09408 41.3783 1.8571 41.1455 1.6709C40.9128 1.4847 40.5954 1.3916 40.1934 1.3916C39.9268 1.3916 39.6813 1.44873 39.457 1.56299C39.2327 1.67301 39.0402 1.83805 38.8794 2.05811C38.7186 2.27816 38.5938 2.54688 38.5049 2.86426C38.416 3.18164 38.3716 3.54769 38.3716 3.9624V4.229C38.3716 4.55485 38.416 4.86165 38.5049 5.14941C38.598 5.43294 38.7313 5.68262 38.9048 5.89844C39.0825 6.11426 39.2962 6.28353 39.5459 6.40625C39.7998 6.52897 40.0876 6.59033 40.4092 6.59033C40.8239 6.59033 41.1751 6.5057 41.4629 6.33643C41.7507 6.16715 42.0024 5.94076 42.2183 5.65723L42.9292 6.22217C42.7811 6.44645 42.5928 6.66016 42.3643 6.86328C42.1357 7.06641 41.8543 7.23145 41.52 7.3584C41.1899 7.48535 40.7985 7.54883 40.3457 7.54883Z" fill="#8E8E8E"/>
</svg>
