<svg width="13" height="14" viewBox="0 0 13 14" fill="none" xmlns="http://www.w3.org/2000/svg">
<path d="M8.57475 6.87859C8.44973 6.87859 8.32751 6.91566 8.22356 6.98512C8.11961 7.05458 8.03859 7.1533 7.99074 7.26881C7.9429 7.38431 7.93038 7.51141 7.95477 7.63403C7.97916 7.75665 8.03936 7.86929 8.12777 7.95769C8.21617 8.0461 8.32881 8.1063 8.45143 8.13069C8.57405 8.15508 8.70115 8.14256 8.81665 8.09472C8.93216 8.04687 9.03088 7.96585 9.10034 7.8619C9.1698 7.75795 9.20687 7.63573 9.20687 7.51071C9.20687 7.34306 9.14028 7.18228 9.02173 7.06373C8.90318 6.94518 8.7424 6.87859 8.57475 6.87859ZM5.05392 7.51071C5.05392 7.38567 5.01683 7.26343 4.94735 7.15946C4.87786 7.0555 4.77911 6.97448 4.66357 6.92665C4.54803 6.87882 4.4209 6.86634 4.29827 6.89077C4.17563 6.91521 4.063 6.97546 3.97462 7.06392C3.88624 7.15238 3.82608 7.26507 3.80175 7.38772C3.77742 7.51038 3.79001 7.63749 3.83794 7.75299C3.88587 7.86849 3.96697 7.96717 4.071 8.03657C4.17502 8.10596 4.29729 8.14294 4.42233 8.14284C4.58989 8.14269 4.75053 8.07603 4.86896 7.9575C4.98739 7.83897 5.05392 7.67827 5.05392 7.51071ZM7.85054 9.26571C7.67817 9.45108 7.46951 9.59899 7.23752 9.70025C7.00554 9.80151 6.75519 9.85394 6.50207 9.8543C6.24895 9.85466 5.99847 9.80292 5.7662 9.70231C5.53393 9.60171 5.32484 9.45438 5.15196 9.2695C5.06174 9.15766 4.93079 9.08625 4.78791 9.07096C4.64504 9.05567 4.50194 9.09776 4.3901 9.18798C4.27826 9.2782 4.20685 9.40915 4.19156 9.55202C4.17627 9.6949 4.21836 9.838 4.30858 9.94984C4.58291 10.2604 4.92012 10.5091 5.29786 10.6795C5.67561 10.8498 6.08525 10.9379 6.49962 10.9379C6.914 10.9379 7.32364 10.8498 7.70139 10.6795C8.07913 10.5091 8.41634 10.2604 8.69067 9.94984C8.77731 9.8381 8.81683 9.69691 8.80078 9.55643C8.78473 9.41595 8.71439 9.28731 8.60478 9.198C8.49516 9.10868 8.35497 9.06576 8.21414 9.07842C8.07332 9.09107 7.94302 9.15829 7.85108 9.26571H7.85054ZM6.50017 1.19434C5.26815 1.19434 4.06381 1.55967 3.03943 2.24414C2.01504 2.92861 1.21664 3.90147 0.745166 5.0397C0.273695 6.17794 0.150337 7.43041 0.390691 8.63875C0.631044 9.84709 1.22432 10.957 2.09548 11.8282C2.96664 12.6994 4.07658 13.2926 5.28492 13.533C6.49326 13.7733 7.74573 13.65 8.88396 13.1785C10.0222 12.707 10.9951 11.9086 11.6795 10.8842C12.364 9.85986 12.7293 8.65552 12.7293 7.4235C12.7275 5.772 12.0706 4.18867 10.9028 3.02088C9.735 1.85308 8.15167 1.1962 6.50017 1.19434ZM6.50017 12.5693C5.48242 12.5693 4.48752 12.2675 3.64129 11.7021C2.79507 11.1367 2.13551 10.333 1.74604 9.39273C1.35656 8.45245 1.25466 7.41779 1.45321 6.4196C1.65176 5.42141 2.14185 4.50451 2.86151 3.78485C3.58117 3.06519 4.49807 2.5751 5.49626 2.37654C6.49446 2.17799 7.52911 2.2799 8.46939 2.66937C9.40967 3.05885 10.2133 3.7184 10.7788 4.56463C11.3442 5.41086 11.646 6.40575 11.646 7.4235C11.6446 8.78782 11.102 10.0959 10.1372 11.0606C9.17252 12.0253 7.86449 12.5679 6.50017 12.5693Z" fill="#8E8E8E"/>
</svg>
